<svg xmlns="http://www.w3.org/2000/svg" version="1.1" xmlns:xlink="http://www.w3.org/1999/xlink" xmlns:svgjs="http://svgjs.com/svgjs" width="1440" height="250" preserveAspectRatio="none" viewBox="0 0 1440 250"><g mask="url(&quot;#SvgjsMask1012&quot;)" fill="none"><path d="M30 250L280 0L584.5 0L334.5 250z" fill="url(#SvgjsLinearGradient1013)"></path><path d="M256.6 250L506.6 0L562.1 0L312.1 250z" fill="url(#SvgjsLinearGradient1013)"></path><path d="M482.20000000000005 250L732.2 0L787.7 0L537.7 250z" fill="url(#SvgjsLinearGradient1013)"></path><path d="M743.8000000000001 250L993.8000000000001 0L1071.8000000000002 0L821.8000000000001 250z" fill="url(#SvgjsLinearGradient1013)"></path><path d="M1408 250L1158 0L930 0L1180 250z" fill="url(#SvgjsLinearGradient1014)"></path><path d="M1194.4 250L944.4000000000001 0L716.4000000000001 0L966.4000000000001 250z" fill="url(#SvgjsLinearGradient1014)"></path><path d="M938.8 250L688.8 0L454.79999999999995 0L704.8 250z" fill="url(#SvgjsLinearGradient1014)"></path><path d="M692.1999999999999 250L442.19999999999993 0L187.19999999999993 0L437.19999999999993 250z" fill="url(#SvgjsLinearGradient1014)"></path><path d="M1196.1084345356983 250L1440 6.108434535698365L1440 250z" fill="url(#SvgjsLinearGradient1013)"></path><path d="M0 250L243.89156546430164 250L 0 6.108434535698365z" fill="url(#SvgjsLinearGradient1014)"></path></g><defs><mask id="SvgjsMask1012"><rect width="1440" height="250" fill="#ffffff"></rect></mask><linearGradient x1="0%" y1="100%" x2="100%" y2="0%" id="SvgjsLinearGradient1013"><stop stop-color="rgba(224, 224, 213, 1)" offset="0"></stop><stop stop-opacity="0" stop-color="rgba(224, 224, 213, 1)" offset="0.66"></stop></linearGradient><linearGradient x1="100%" y1="100%" x2="0%" y2="0%" id="SvgjsLinearGradient1014"><stop stop-color="rgba(224, 224, 213, 1)" offset="0"></stop><stop stop-opacity="0" stop-color="rgba(224, 224, 213, 1)" offset="0.66"></stop></linearGradient></defs></svg>